<svg width="33" height="33" viewBox="0 0 33 33" fill="none" xmlns="http://www.w3.org/2000/svg">
<path d="M30.2499 10.0833H2.74992C2.5068 10.0833 2.27365 10.1799 2.10174 10.3518C1.92983 10.5237 1.83325 10.7569 1.83325 11C1.83325 11.2431 1.92983 11.4763 2.10174 11.6482C2.27365 11.8201 2.5068 11.9167 2.74992 11.9167H30.2499C30.493 11.9167 30.7262 11.8201 30.8981 11.6482C31.07 11.4763 31.1666 11.2431 31.1666 11C31.1666 10.7569 31.07 10.5237 30.8981 10.3518C30.7262 10.1799 30.493 10.0833 30.2499 10.0833Z" fill="black"/>
<path d="M25.6667 15.5833H7.33341C7.0903 15.5833 6.85714 15.6799 6.68523 15.8518C6.51333 16.0237 6.41675 16.2569 6.41675 16.5C6.41675 16.7431 6.51333 16.9763 6.68523 17.1482C6.85714 17.3201 7.0903 17.4167 7.33341 17.4167H25.6667C25.9099 17.4167 26.143 17.3201 26.3149 17.1482C26.4868 16.9763 26.5834 16.7431 26.5834 16.5C26.5834 16.2569 26.4868 16.0237 26.3149 15.8518C26.143 15.6799 25.9099 15.5833 25.6667 15.5833Z" fill="black"/>
<path d="M21.0833 21.0833H11.9167C11.6736 21.0833 11.4404 21.1799 11.2685 21.3518C11.0966 21.5237 11 21.7569 11 22C11 22.2431 11.0966 22.4763 11.2685 22.6482C11.4404 22.8201 11.6736 22.9167 11.9167 22.9167H21.0833C21.3264 22.9167 21.5596 22.8201 21.7315 22.6482C21.9034 22.4763 22 22.2431 22 22C22 21.7569 21.9034 21.5237 21.7315 21.3518C21.5596 21.1799 21.3264 21.0833 21.0833 21.0833Z" fill="black"/>
</svg>
