<svg width="23" height="19" viewBox="0 0 23 19" fill="none" xmlns="http://www.w3.org/2000/svg">
<path d="M18 8.78125C19.1218 8.78125 20.0312 7.87183 20.0312 6.75C20.0312 5.62817 19.1218 4.71875 18 4.71875C16.8782 4.71875 15.9688 5.62817 15.9688 6.75C15.9688 7.87183 16.8782 8.78125 18 8.78125Z" stroke="#9B9B9B" stroke-width="1.5" stroke-linecap="round" stroke-linejoin="round"/>
<path d="M14.7188 11.9062C14.7188 10.3438 15.9688 8.78125 18 8.78125C20.0312 8.78125 21.2812 10.3438 21.2812 11.9062" stroke="#9B9B9B" stroke-width="1.5" stroke-linecap="round" stroke-linejoin="round"/>
<path d="M10.0938 6.53125H7.71875V7.71875H10.0938V8.90625H8.3125V10.0938H10.0938V11.2812H7.71875V12.4688H10.0938C10.4087 12.4688 10.7107 12.3436 10.9334 12.1209C11.1561 11.8982 11.2812 11.5962 11.2812 11.2812V7.71875C11.2812 7.40381 11.1561 7.10176 10.9334 6.87906C10.7107 6.65636 10.4087 6.53125 10.0938 6.53125Z" fill="#9B9B9B"/>
</svg>
