<svg width="29" height="19" viewBox="0 0 29 19" fill="none" xmlns="http://www.w3.org/2000/svg">
<path d="M25.4688 9.15625V7.625C25.4688 6.9375 24.9062 6.375 24.2188 6.375H22.125C21.8938 6.375 21.675 6.45 21.5 6.575C21.325 6.45 21.1062 6.375 20.875 6.375H18.7812C18.0938 6.375 17.5312 6.9375 17.5312 7.625V9.15625C17.2812 9.44375 17.125 9.81875 17.125 10.2312V12.625H18.0625V11.6875H24.9375V12.625H25.875V10.2312C25.875 9.81875 25.7188 9.44375 25.4688 9.15625ZM24.4688 8.5625H21.9688V7.3125H24.4688V8.5625ZM18.5312 7.3125H21.0312V8.5625H18.5312V7.3125ZM24.9375 10.75H18.0625V10.125C18.0625 9.78125 18.3438 9.5 18.6875 9.5H24.3125C24.6562 9.5 24.9375 9.78125 24.9375 10.125V10.75ZM26.5 4.5V14.5H16.5V4.5H26.5ZM26.5 3.25H16.5C15.8125 3.25 15.25 3.8125 15.25 4.5V14.5C15.25 15.1875 15.8125 15.75 16.5 15.75H26.5C27.1875 15.75 27.75 15.1875 27.75 14.5V4.5C27.75 3.8125 27.1875 3.25 26.5 3.25Z" fill="#9B9B9B"/>
<path d="M10.0938 6.53125H7.71875V7.71875H10.0938V8.90625H8.3125V10.0938H10.0938V11.2812H7.71875V12.4688H10.0938C10.4087 12.4688 10.7107 12.3436 10.9334 12.1209C11.1561 11.8982 11.2812 11.5962 11.2812 11.2812V7.71875C11.2812 7.40381 11.1561 7.10176 10.9334 6.87906C10.7107 6.65636 10.4087 6.53125 10.0938 6.53125Z" fill="#9B9B9B"/>
</svg>
