<svg width="12" height="12" viewBox="0 0 12 12" fill="none" xmlns="http://www.w3.org/2000/svg">
<path d="M2.25 6C2.94036 6 3.5 5.44036 3.5 4.75C3.5 4.05964 2.94036 3.5 2.25 3.5C1.55964 3.5 1 4.05964 1 4.75C1 5.44036 1.55964 6 2.25 6Z" fill="#9B9B9B"/>
<path d="M4.5 4C5.19036 4 5.75 3.44036 5.75 2.75C5.75 2.05964 5.19036 1.5 4.5 1.5C3.80964 1.5 3.25 2.05964 3.25 2.75C3.25 3.44036 3.80964 4 4.5 4Z" fill="#9B9B9B"/>
<path d="M7.5 4C8.19036 4 8.75 3.44036 8.75 2.75C8.75 2.05964 8.19036 1.5 7.5 1.5C6.80964 1.5 6.25 2.05964 6.25 2.75C6.25 3.44036 6.80964 4 7.5 4Z" fill="#9B9B9B"/>
<path d="M9.75 6C10.4404 6 11 5.44036 11 4.75C11 4.05964 10.4404 3.5 9.75 3.5C9.05964 3.5 8.5 4.05964 8.5 4.75C8.5 5.44036 9.05964 6 9.75 6Z" fill="#9B9B9B"/>
<path d="M8.67007 7.43C8.23507 6.92 7.87007 6.485 7.43007 5.975C7.20007 5.705 6.90507 5.435 6.55507 5.315C6.50007 5.295 6.44507 5.28 6.39007 5.27C6.26507 5.25 6.13007 5.25 6.00007 5.25C5.87007 5.25 5.73507 5.25 5.60507 5.275C5.55007 5.285 5.49507 5.3 5.44007 5.32C5.09007 5.44 4.80007 5.71 4.56507 5.98C4.13007 6.49 3.76507 6.925 3.32507 7.435C2.67007 8.09 1.86507 8.815 2.01507 9.83C2.16007 10.34 2.52507 10.845 3.18007 10.99C3.54507 11.065 4.71007 10.77 5.95007 10.77H6.04007C7.28007 10.77 8.44507 11.06 8.81007 10.99C9.46507 10.845 9.83007 10.335 9.97507 9.83C10.1301 8.81 9.32507 8.085 8.67007 7.43V7.43Z" fill="#9B9B9B"/>
</svg>
