<svg width="10" height="10" viewBox="0 0 10 10" fill="none" xmlns="http://www.w3.org/2000/svg">
<path d="M9.833 5.1385C9.86642 5.02899 9.89495 4.91805 9.9185 4.806C9.92 4.7975 9.9205 4.7895 9.9225 4.781C9.9325 4.732 9.937 4.6815 9.945 4.632C9.9575 4.5535 9.9725 4.4755 9.98 4.3965C10.0395 3.80718 9.96705 3.212 9.76787 2.65417C9.56869 2.09634 9.24781 1.58986 8.8285 1.1715C8.4574 0.799608 8.01649 0.504674 7.5311 0.303635C7.0457 0.102596 6.52538 -0.000589503 6 2.53325e-06V4H2.2585L1.8295 3H0V4H1.1705L2.0845 6.133C1.76407 6.26504 1.48999 6.48915 1.29695 6.77698C1.10391 7.06481 1.00057 7.40343 1 7.75C1 8.715 1.785 9.5 2.75 9.5C3.6295 9.5 4.352 8.8455 4.4745 8H5.5255C5.648 8.8455 6.3705 9.5 7.25 9.5C8.215 9.5 9 8.715 9 7.75C9 7.435 8.9095 7.1435 8.7635 6.8875C8.7845 6.867 8.808 6.849 8.829 6.828C9.009 6.6475 9.173 6.4485 9.3175 6.236C9.4615 6.021 9.5855 5.793 9.6855 5.5565C9.6935 5.538 9.6985 5.5185 9.706 5.5H9.7065L9.714 5.479C9.758 5.369 9.798 5.2585 9.8315 5.145L9.833 5.1385V5.1385ZM2.75 8.5C2.3365 8.5 2 8.1635 2 7.75C2 7.3365 2.3365 7 2.75 7C3.1635 7 3.5 7.3365 3.5 7.75C3.5 8.1635 3.1635 8.5 2.75 8.5ZM7.25 8.5C6.8365 8.5 6.5 8.1635 6.5 7.75C6.5 7.3365 6.8365 7 7.25 7C7.6635 7 8 7.3365 8 7.75C8 8.1635 7.6635 8.5 7.25 8.5Z" fill="#9B9B9B"/>
</svg>
